<?xml version="1.0" encoding="utf-8"?>
<!-- Generator: Adobe Illustrator 25.2.1, SVG Export Plug-In . SVG Version: 6.00 Build 0)  -->
<svg version="1.1" id="Layer_1" xmlns="http://www.w3.org/2000/svg" xmlns:xlink="http://www.w3.org/1999/xlink" x="0px" y="0px"
	 viewBox="0 0 88.4 12" style="enable-background:new 0 0 88.4 12;" xml:space="preserve">
<style type="text/css">
	.st0{fill:#FFFFFF;stroke:#FFFFFF;stroke-width:0.25;stroke-miterlimit:10;}
	.st1{fill:none;stroke:#FFFFFF;stroke-width:0.25;stroke-miterlimit:10;}
</style>
<g>
	<path class="st0" d="M17.2,10.6h-0.8l-1.1-6.8l-2.5,5.4h-0.4L9.9,3.7l-1.1,6.8H8l1.4-8.6h0.5l2.8,5.9l2.8-5.9h0.5L17.2,10.6z"/>
	<path class="st0" d="M18.8,10.6V1.9h0.8v8.6H18.8z"/>
	<path class="st0" d="M22.2,1.9v7.9h5.3v0.8h-6V1.9H22.2z"/>
	<path class="st0" d="M34.8,1.9v0.8h-5.3v3.2h4.4v0.8h-4.4v3.2h5.4v0.8h-6.2V1.9H34.8z"/>
	<path class="st0" d="M39.2,1.8c1.1,0,2.1,0.5,2.8,1.3l-0.6,0.5c-0.5-0.7-1.3-1-2.2-1c-0.6,0-1.1,0.1-1.6,0.4
		C37.2,3.2,37,3.6,37,3.9c0,0.3,0.1,0.7,0.4,0.9c0.4,0.3,0.9,0.6,1.4,0.8l1.1,0.5c0.6,0.2,1.1,0.6,1.6,1c0.4,0.4,0.7,0.9,0.7,1.5
		c0,0.6-0.3,1.2-0.8,1.6c-0.6,0.4-1.4,0.6-2.1,0.6c-1.2,0-2.4-0.5-3.3-1.4l0.6-0.5c0.7,0.7,1.7,1.1,2.7,1.1c0.6,0,1.2-0.1,1.7-0.4
		c0.4-0.2,0.6-0.6,0.5-1c0-0.3-0.2-0.7-0.4-0.9c-0.4-0.3-0.8-0.6-1.3-0.8l-1.1-0.5c-0.6-0.2-1.1-0.5-1.6-0.9
		c-0.4-0.4-0.7-0.9-0.7-1.5c0-0.6,0.4-1.2,0.9-1.5C37.8,2,38.5,1.8,39.2,1.8z"/>
	<path class="st0" d="M46.3,1.9h3c1.1,0,2.2,0.4,3.1,1.1c0.9,0.8,1.3,2,1.3,3.2c0,1.2-0.4,2.4-1.3,3.2c-0.9,0.7-2,1.1-3.1,1.1h-3
		L46.3,1.9z M47,9.8h2.2c0.9,0,1.9-0.3,2.6-0.9c0.7-0.7,1.1-1.6,1.1-2.6c0-1-0.3-2-1.1-2.6c-0.7-0.6-1.6-0.9-2.6-0.9H47V9.8z"/>
	<path class="st0" d="M57.9,1.9l4,8.6h-0.8l-1-2.2h-4.7l-1,2.2h-0.8l4-8.6H57.9z M55.8,7.6h4l-2-4.4L55.8,7.6z"/>
	<path class="st0" d="M61.2,1.9l3.3,7.4l3.3-7.4h0.8l-3.9,8.6h-0.4l-3.9-8.6H61.2z"/>
	<path class="st0" d="M69.9,10.6V1.9h0.8v8.6H69.9z"/>
	<path class="st0" d="M75.3,1.8c1.1,0,2.1,0.5,2.8,1.3l-0.6,0.5c-0.5-0.7-1.3-1-2.2-1c-0.6,0-1.1,0.1-1.6,0.4
		c-0.5,0.3-0.7,0.9-0.4,1.4c0.1,0.1,0.2,0.2,0.3,0.3c0.4,0.3,0.9,0.6,1.4,0.8l1.1,0.5c0.6,0.2,1.1,0.6,1.6,1C78,7.4,78.3,8,78.3,8.5
		c0,0.6-0.3,1.2-0.8,1.6c-0.6,0.4-1.4,0.6-2.1,0.6c-1.2,0-2.4-0.4-3.2-1.3l0.6-0.5c0.7,0.7,1.7,1.1,2.7,1.1c0.6,0,1.1-0.2,1.6-0.5
		c0.3-0.2,0.5-0.6,0.5-1c0-0.4-0.2-0.7-0.4-0.9c-0.4-0.3-0.8-0.6-1.3-0.8l-1.1-0.5C74,6,73.4,5.7,72.9,5.3c-0.4-0.4-0.7-0.9-0.7-1.5
		c0-0.6,0.4-1.2,0.9-1.5C73.8,2,74.5,1.8,75.3,1.8z"/>
</g>
<path class="st1" d="M78.2,11.8H7.9c-3.2,0-5.8-2.6-5.8-5.8v0c0-3.2,2.6-5.8,5.8-5.8h70.3C81.4,0.2,84,2.8,84,6v0
	C84,9.2,81.4,11.8,78.2,11.8z"/>
</svg>
