<svg xmlns="http://www.w3.org/2000/svg" viewBox="0 0 70.49 9.03"><defs><style>.cls-1{fill:#fff;stroke:#fff;stroke-miterlimit:10;stroke-width:0.25px;}</style></defs><g id="Layer_2" data-name="Layer 2"><g id="Layer_1-2" data-name="Layer 1"><path class="cls-1" d="M9.31,8.84H8.54L7.48,2,4.94,7.45H4.52L2,2,.91,8.84H.15L1.51.2H2L4.73,6.07,7.49.2H8Z"/><path class="cls-1" d="M10.92,8.84V.2h.75V8.84Z"/><path class="cls-1" d="M14.33.2V8.08H19.6v.76h-6V.2Z"/><path class="cls-1" d="M27,.2V1H21.63V4.14H26v.75H21.63V8.08h5.42v.76H20.88V.2Z"/><path class="cls-1" d="M31.29.12A3.55,3.55,0,0,1,34.1,1.44l-.62.48a2.72,2.72,0,0,0-2.19-1,3,3,0,0,0-1.62.41,1,1,0,0,0-.55.9,1.07,1.07,0,0,0,.41.87,4.91,4.91,0,0,0,1.39.79l1.13.47a5,5,0,0,1,1.55.94,2,2,0,0,1,.67,1.46,2,2,0,0,1-.84,1.61,3.74,3.74,0,0,1-2.12.56,4.35,4.35,0,0,1-3.25-1.33l.58-.53a3.52,3.52,0,0,0,2.67,1.08A3,3,0,0,0,33,7.71a1.08,1.08,0,0,0,.51-1,1.18,1.18,0,0,0-.42-.9,4.26,4.26,0,0,0-1.32-.78l-1.12-.47A5.36,5.36,0,0,1,29,3.65a1.93,1.93,0,0,1-.67-1.44A1.9,1.9,0,0,1,29.25.66,3.73,3.73,0,0,1,31.29.12Z"/><path class="cls-1" d="M38.39.2h3a4.61,4.61,0,0,1,3.1,1.12,4.26,4.26,0,0,1,1.31,3.2,4.24,4.24,0,0,1-1.31,3.2,4.61,4.61,0,0,1-3.1,1.12h-3Zm.75,7.87h2.23A3.81,3.81,0,0,0,44,7.16,3.41,3.41,0,0,0,45,4.52,3.41,3.41,0,0,0,44,1.88,3.81,3.81,0,0,0,41.37,1H39.14Z"/><path class="cls-1" d="M50.05.2,54,8.84h-.84l-1-2.18H47.53l-1,2.18h-.84L49.66.2ZM47.87,5.9h4l-2-4.42Z"/><path class="cls-1" d="M53.36.2l3.3,7.36L60,.2h.84L56.85,8.84h-.39L52.52.2Z"/><path class="cls-1" d="M62.08,8.84V.2h.75V8.84Z"/><path class="cls-1" d="M67.38.12a3.52,3.52,0,0,1,2.8,1.32l-.61.48a2.72,2.72,0,0,0-2.19-1,3,3,0,0,0-1.62.41,1,1,0,0,0-.55.9,1.09,1.09,0,0,0,.4.87,5,5,0,0,0,1.4.79l1.13.47a5.21,5.21,0,0,1,1.55.94,2,2,0,0,1,.67,1.46,2,2,0,0,1-.84,1.61,3.77,3.77,0,0,1-2.12.56,4.35,4.35,0,0,1-3.25-1.33l.57-.53A3.56,3.56,0,0,0,67.4,8.13a3,3,0,0,0,1.67-.42,1.1,1.1,0,0,0,.51-1,1.16,1.16,0,0,0-.43-.9,4.2,4.2,0,0,0-1.31-.78l-1.12-.47a5.55,5.55,0,0,1-1.63-.94,1.92,1.92,0,0,1-.66-1.44A1.9,1.9,0,0,1,65.34.66,3.73,3.73,0,0,1,67.38.12Z"/></g></g></svg>