<svg id="Layer_1" data-name="Layer 1" xmlns="http://www.w3.org/2000/svg" viewBox="0 0 88.45 12"><defs><style>.cls-1,.cls-2{fill:#fff;}.cls-1{stroke:#fff;stroke-miterlimit:10;stroke-width:0.25px;}.cls-3{fill:#dda528;}</style></defs><path class="cls-1" d="M27.27,10.33H26.5L25.44,3.52,22.9,8.94h-.42L19.94,3.52l-1.07,6.81h-.76L19.47,1.7h.45l2.77,5.87L25.46,1.7h.45Z"/><path class="cls-1" d="M28.88,10.33V1.7h.75v8.63Z"/><path class="cls-1" d="M32.29,1.7V9.58h5.27v.75h-6V1.7Z"/><path class="cls-1" d="M44.91,1.7v.75H39.59V5.64H44v.75H39.59V9.58H45v.75H38.84V1.7Z"/><path class="cls-1" d="M49.25,1.62a3.53,3.53,0,0,1,2.81,1.31l-.62.48a2.7,2.7,0,0,0-2.19-1,2.88,2.88,0,0,0-1.61.41,1,1,0,0,0-.56.89,1.05,1.05,0,0,0,.41.87,4.81,4.81,0,0,0,1.39.79L50,5.83a5.15,5.15,0,0,1,1.56,1,2,2,0,0,1,.66,1.46,2,2,0,0,1-.84,1.6,3.67,3.67,0,0,1-2.12.56A4.35,4.35,0,0,1,46,9.07l.58-.52a3.56,3.56,0,0,0,2.67,1.07,2.86,2.86,0,0,0,1.67-.42,1.06,1.06,0,0,0,.52-1A1.21,1.21,0,0,0,51,7.33a4.76,4.76,0,0,0-1.31-.78l-1.13-.47A5.48,5.48,0,0,1,47,5.15a1.94,1.94,0,0,1-.66-1.45,1.87,1.87,0,0,1,.9-1.54A3.73,3.73,0,0,1,49.25,1.62Z"/><path class="cls-1" d="M56.35,1.7h3a4.56,4.56,0,0,1,3.1,1.12A4.23,4.23,0,0,1,63.74,6a4.24,4.24,0,0,1-1.31,3.2,4.56,4.56,0,0,1-3.1,1.12h-3Zm.75,7.87h2.23a3.75,3.75,0,0,0,2.58-.92A3.4,3.4,0,0,0,63,6a3.39,3.39,0,0,0-1.07-2.63,3.75,3.75,0,0,0-2.58-.92H57.1Z"/><path class="cls-1" d="M68,1.7,72,10.33h-.84l-1-2.18H65.49l-1,2.18h-.84L67.62,1.7ZM65.83,7.4h4L67.82,3Z"/><path class="cls-1" d="M71.32,1.7l3.3,7.36L77.91,1.7h.84l-3.93,8.63h-.4L70.48,1.7Z"/><path class="cls-1" d="M80,10.33V1.7h.75v8.63Z"/><path class="cls-1" d="M85.34,1.62a3.55,3.55,0,0,1,2.81,1.31l-.62.48a2.71,2.71,0,0,0-2.19-1,2.94,2.94,0,0,0-1.62.41,1.05,1.05,0,0,0-.14,1.76A4.55,4.55,0,0,0,85,5.36l1.13.47a5,5,0,0,1,1.55,1,2,2,0,0,1,.67,1.46,2,2,0,0,1-.84,1.6,3.67,3.67,0,0,1-2.12.56,4.35,4.35,0,0,1-3.25-1.33l.58-.52a3.56,3.56,0,0,0,2.67,1.07A2.88,2.88,0,0,0,87,9.2a1.07,1.07,0,0,0,.51-1,1.2,1.2,0,0,0-.42-.91,4.69,4.69,0,0,0-1.32-.78l-1.12-.47a5.55,5.55,0,0,1-1.63-.93,1.94,1.94,0,0,1-.66-1.45,1.88,1.88,0,0,1,.91-1.54A3.73,3.73,0,0,1,85.34,1.62Z"/><circle class="cls-2" cx="6" cy="6" r="6"/><circle class="cls-3" cx="5.94" cy="6.17" r="2.06"/><circle class="cls-2" cx="5.94" cy="6.17" r="0.78"/><path class="cls-3" d="M3.06,7.17H2.87L2.6,5.46,2,6.82H1.86L1.23,5.46,1,7.17H.77L1.11,5h.11l.7,1.47L2.61,5h.11Z"/><path class="cls-3" d="M9.19,5h.74a1.16,1.16,0,0,1,.78.28,1.07,1.07,0,0,1,.33.8,1.06,1.06,0,0,1-.33.8,1.12,1.12,0,0,1-.78.28H9.19Zm.19,2h.55a1,1,0,0,0,.65-.23.86.86,0,0,0,.27-.66.88.88,0,0,0-.27-.66,1,1,0,0,0-.65-.22H9.38Z"/></svg>